<?xml version="1.0" ?><!DOCTYPE svg  PUBLIC '-//W3C//DTD SVG 1.1//EN'
  'http://www.w3.org/Graphics/SVG/1.1/DTD/svg11.dtd'>
<svg enable-background="new 0 0 32 32" id="Слой_1" version="1.1" viewBox="0 0 32 32" xml:space="preserve"
     xmlns="http://www.w3.org/2000/svg"><g id="Group_Arrows"><path clip-rule="evenodd" d="M6,16c0.552,0,1-0.448,1-1V7h16.591l-3.255,3.294   c-0.393,0.395-0.393,1.034,0,1.429c0.393,0.394,1.03,0.394,1.423,0l4.94-4.999c0.393-0.395,0.393-1.034,0-1.429c0,0,0,0,0,0   l-4.94-4.999c-0.393-0.394-1.03-0.394-1.423,0c-0.393,0.394-0.393,1.034,0,1.428L23.573,5H6C5.448,5,5,5.448,5,6v9   C5,15.552,5.448,16,6,16z" fill="#71767b" fill-rule="evenodd"/><path
  clip-rule="evenodd"
  d="M26,15.993c-0.552,0-1,0.448-1,1v8.031H8.373l3.284-3.33   c0.393-0.395,0.393-1.036,0-1.431c-0.393-0.395-1.03-0.395-1.423,0L5.32,25.247c-0.419,0.396-0.422,1.078,0,1.474l4.915,4.983   c0.393,0.395,1.03,0.395,1.423,0c0.393-0.395,0.393-1.036,0-1.431l-3.203-3.248H26c0.552,0,1-0.448,1-1v-9.031   C27,16.441,26.552,15.993,26,15.993z"
  fill="#71767b" fill-rule="evenodd"/></g>
  <g/>
  <g/>
  <g/>
  <g/>
  <g/>
  <g/></svg>
